<svg xmlns="http://www.w3.org/2000/svg" viewBox="0 0 400 220" width="400" height="220">
  <rect x="0" y="0" width="400" height="220" fill="#f3f1ec"></rect>
  
  <rect x="60" y="150" width="280" height="14" rx="2" fill="#c7c3ba" stroke="#1a1a1a" stroke-width="2"></rect>
  <rect x="80" y="108" width="240" height="14" rx="2" fill="#c7c3ba" stroke="#1a1a1a" stroke-width="2"></rect>
  <rect x="100" y="66" width="200" height="14" rx="2" fill="#c7c3ba" stroke="#1a1a1a" stroke-width="2"></rect>
  <rect x="120" y="28" width="160" height="14" rx="2" fill="#c7c3ba" stroke="#1a1a1a" stroke-width="2"></rect>
  
  <rect x="60" y="28" width="8" height="136" fill="#9c9184" stroke="#1a1a1a" stroke-width="1.5"></rect>
  <rect x="332" y="28" width="8" height="136" fill="#9c9184" stroke="#1a1a1a" stroke-width="1.5"></rect>
  
  <rect x="126" y="34" width="26" height="30" rx="3" fill="#e2622f" stroke="#1a1a1a" stroke-width="1.5"></rect>
  <rect x="154" y="34" width="26" height="30" rx="3" fill="#eab308" stroke="#1a1a1a" stroke-width="1.5"></rect>
  <rect x="182" y="34" width="26" height="30" rx="3" fill="#d6303d" stroke="#1a1a1a" stroke-width="1.5"></rect>
  <rect x="210" y="34" width="26" height="30" rx="3" fill="#e2622f" stroke="#1a1a1a" stroke-width="1.5"></rect>
  <rect x="238" y="34" width="26" height="30" rx="3" fill="#eab308" stroke="#1a1a1a" stroke-width="1.5"></rect>

  <rect x="106" y="72" width="26" height="34" rx="3" fill="#c9a06b" stroke="#1a1a1a" stroke-width="1.5"></rect>
  <rect x="134" y="72" width="26" height="34" rx="3" fill="#e2622f" stroke="#1a1a1a" stroke-width="1.5"></rect>
  <rect x="162" y="72" width="26" height="34" rx="3" fill="#d6303d" stroke="#1a1a1a" stroke-width="1.5"></rect>
  <rect x="190" y="72" width="26" height="34" rx="3" fill="#eab308" stroke="#1a1a1a" stroke-width="1.5"></rect>
  <rect x="218" y="72" width="26" height="34" rx="3" fill="#e2622f" stroke="#1a1a1a" stroke-width="1.5"></rect>
  <rect x="246" y="72" width="26" height="34" rx="3" fill="#c9a06b" stroke="#1a1a1a" stroke-width="1.5"></rect>
  <rect x="274" y="72" width="26" height="34" rx="3" fill="#d6303d" stroke="#1a1a1a" stroke-width="1.5"></rect>

  <rect x="86" y="114" width="26" height="36" rx="3" fill="#eab308" stroke="#1a1a1a" stroke-width="1.5"></rect>
  <rect x="114" y="114" width="26" height="36" rx="3" fill="#d6303d" stroke="#1a1a1a" stroke-width="1.5"></rect>
  <rect x="142" y="114" width="26" height="36" rx="3" fill="#e2622f" stroke="#1a1a1a" stroke-width="1.5"></rect>
  <rect x="170" y="114" width="26" height="36" rx="3" fill="#c9a06b" stroke="#1a1a1a" stroke-width="1.5"></rect>
  <rect x="198" y="114" width="26" height="36" rx="3" fill="#eab308" stroke="#1a1a1a" stroke-width="1.5"></rect>
  <rect x="226" y="114" width="26" height="36" rx="3" fill="#d6303d" stroke="#1a1a1a" stroke-width="1.5"></rect>
  <rect x="254" y="114" width="26" height="36" rx="3" fill="#e2622f" stroke="#1a1a1a" stroke-width="1.5"></rect>
  <rect x="282" y="114" width="26" height="36" rx="3" fill="#c9a06b" stroke="#1a1a1a" stroke-width="1.5"></rect>

  
  <rect x="66" y="156" width="26" height="40" rx="3" fill="#d6303d" stroke="#1a1a1a" stroke-width="1.5"></rect>
  <rect x="94" y="156" width="26" height="40" rx="3" fill="#e2622f" stroke="#1a1a1a" stroke-width="1.5"></rect>
  <rect x="122" y="156" width="26" height="40" rx="3" fill="#eab308" stroke="#1a1a1a" stroke-width="1.5"></rect>
  <rect x="150" y="156" width="26" height="40" rx="3" fill="#c9a06b" stroke="#1a1a1a" stroke-width="1.5"></rect>
  <rect x="178" y="156" width="26" height="40" rx="3" fill="#d6303d" stroke="#1a1a1a" stroke-width="1.5"></rect>
  <rect x="206" y="156" width="26" height="40" rx="3" fill="#e2622f" stroke="#1a1a1a" stroke-width="1.5"></rect>
  <rect x="234" y="156" width="26" height="40" rx="3" fill="#eab308" stroke="#1a1a1a" stroke-width="1.5"></rect>
  <rect x="262" y="156" width="26" height="40" rx="3" fill="#c9a06b" stroke="#1a1a1a" stroke-width="1.5"></rect>
  <rect x="290" y="156" width="26" height="40" rx="3" fill="#d6303d" stroke="#1a1a1a" stroke-width="1.5"></rect>
  <rect x="318" y="156" width="14" height="40" rx="3" fill="#e2622f" stroke="#1a1a1a" stroke-width="1.5"></rect>

  
  <rect x="140" y="8" width="120" height="16" rx="3" fill="#9c1f28"></rect>
  <text x="200" y="20" font-family="Arial,sans-serif" font-weight="800" font-size="10" fill="#fff" text-anchor="middle" letter-spacing="0.5">PROMO ENDCAP</text>

  <text x="20" y="215" font-family="Arial,sans-serif" font-weight="800" font-size="12" fill="#1a1a1a" letter-spacing="0.5">ENDCAP &amp;middot; PLACEMENT MOCKUP</text>
</svg>