<svg xmlns="http://www.w3.org/2000/svg" viewBox="0 0 400 170" width="400" height="170">
  <rect x="0" y="0" width="400" height="170" fill="#f3f1ec"></rect>
  
    <line x1="20" y1="88" x2="380" y2="88" stroke="#1a1a1a" stroke-width="3"></line>
    <line x1="20" y1="158" x2="380" y2="158" stroke="#1a1a1a" stroke-width="3"></line>
    <rect x="24" y="30" width="52.666666666666664" height="55" rx="4" fill="#b8892f" stroke="#1a1a1a" stroke-width="2"></rect><rect x="24" y="30" width="52.666666666666664" height="10" fill="#1a1a1a" opacity="0.12"></rect><rect x="82.66666666666666" y="30" width="52.666666666666664" height="55" rx="4" fill="#3d2a1a" stroke="#1a1a1a" stroke-width="2"></rect><rect x="82.66666666666666" y="30" width="52.666666666666664" height="10" fill="#1a1a1a" opacity="0.12"></rect><rect x="141.33333333333331" y="30" width="52.666666666666664" height="55" rx="4" fill="#e8dcc8" stroke="#1a1a1a" stroke-width="2"></rect><rect x="141.33333333333331" y="30" width="52.666666666666664" height="10" fill="#1a1a1a" opacity="0.12"></rect><rect x="199.99999999999997" y="30" width="52.666666666666664" height="55" rx="4" fill="#b8892f" stroke="#1a1a1a" stroke-width="2"></rect><rect x="199.99999999999997" y="30" width="52.666666666666664" height="10" fill="#1a1a1a" opacity="0.12"></rect><rect x="258.66666666666663" y="30" width="52.666666666666664" height="55" rx="4" fill="#3d2a1a" stroke="#1a1a1a" stroke-width="2"></rect><rect x="258.66666666666663" y="30" width="52.666666666666664" height="10" fill="#1a1a1a" opacity="0.12"></rect><rect x="317.3333333333333" y="30" width="52.666666666666664" height="55" rx="4" fill="#e8dcc8" stroke="#1a1a1a" stroke-width="2"></rect><rect x="317.3333333333333" y="30" width="52.666666666666664" height="10" fill="#1a1a1a" opacity="0.12"></rect><rect x="24" y="100" width="52.666666666666664" height="55" rx="4" fill="#b8892f" stroke="#1a1a1a" stroke-width="2"></rect><rect x="24" y="100" width="52.666666666666664" height="10" fill="#1a1a1a" opacity="0.12"></rect><rect x="82.66666666666666" y="100" width="52.666666666666664" height="55" rx="4" fill="#3d2a1a" stroke="#1a1a1a" stroke-width="2"></rect><rect x="82.66666666666666" y="100" width="52.666666666666664" height="10" fill="#1a1a1a" opacity="0.12"></rect><rect x="141.33333333333331" y="100" width="52.666666666666664" height="55" rx="4" fill="#e8dcc8" stroke="#1a1a1a" stroke-width="2"></rect><rect x="141.33333333333331" y="100" width="52.666666666666664" height="10" fill="#1a1a1a" opacity="0.12"></rect><rect x="199.99999999999997" y="100" width="52.666666666666664" height="55" rx="4" fill="#b8892f" stroke="#1a1a1a" stroke-width="2"></rect><rect x="199.99999999999997" y="100" width="52.666666666666664" height="10" fill="#1a1a1a" opacity="0.12"></rect><rect x="258.66666666666663" y="100" width="52.666666666666664" height="55" rx="4" fill="#3d2a1a" stroke="#1a1a1a" stroke-width="2"></rect><rect x="258.66666666666663" y="100" width="52.666666666666664" height="10" fill="#1a1a1a" opacity="0.12"></rect><rect x="317.3333333333333" y="100" width="52.666666666666664" height="55" rx="4" fill="#e8dcc8" stroke="#1a1a1a" stroke-width="2"></rect><rect x="317.3333333333333" y="100" width="52.666666666666664" height="10" fill="#1a1a1a" opacity="0.12"></rect>
    <text x="20" y="20" font-family="Arial,sans-serif" font-weight="800" font-size="12" fill="#1a1a1a" letter-spacing="0.5">COFFEE &amp; CREAMER &amp;middot; PLANOGRAM</text>
  
  </svg>