<svg xmlns="http://www.w3.org/2000/svg" viewBox="0 0 400 220" width="400" height="220">
  <rect x="0" y="0" width="400" height="220" fill="#dce4ea"></rect>
  
  <rect x="0" y="0" width="400" height="60" fill="#cdd8de"></rect>
  
  <rect x="20" y="55" width="360" height="140" fill="#f3f1ec" stroke="#1a1a1a" stroke-width="2"></rect>
  
  <rect x="20" y="55" width="360" height="34" fill="#9c1f28" stroke="#1a1a1a" stroke-width="2"></rect>
  <text x="200" y="78" font-family="Arial,sans-serif" font-weight="800" font-size="16" fill="#fff" text-anchor="middle" letter-spacing="1">STORE SIGNAGE</text>
  
  <rect x="160" y="150" width="80" height="45" fill="#a9c3d1" stroke="#1a1a1a" stroke-width="2"></rect>
  <line x1="200" y1="150" x2="200" y2="195" stroke="#1a1a1a" stroke-width="1.5"></line>
  
  <rect x="34" y="100" width="110" height="42" fill="#a9c3d1" stroke="#1a1a1a" stroke-width="1.5"></rect>
  <line x1="89" y1="100" x2="89" y2="142" stroke="#1a1a1a" stroke-width="1"></line>
  
  <rect x="256" y="100" width="110" height="42" fill="#a9c3d1" stroke="#1a1a1a" stroke-width="1.5"></rect>
  <line x1="311" y1="100" x2="311" y2="142" stroke="#1a1a1a" stroke-width="1"></line>
  
  <rect x="0" y="195" width="400" height="25" fill="#b9b3a8"></rect>
  
  <rect x="150" y="140" width="100" height="8" rx="2" fill="#1a1a1a"></rect>
  
  <rect x="40" y="150" width="60" height="16" rx="2" fill="#eab308" stroke="#1a1a1a" stroke-width="1.2"></rect>
  <rect x="300" y="150" width="60" height="16" rx="2" fill="#2f7d4f" stroke="#1a1a1a" stroke-width="1.2"></rect>
  <text x="20" y="215" font-family="Arial,sans-serif" font-weight="800" font-size="12" fill="#1a1a1a" letter-spacing="0.5">STOREFRONT &amp;middot; CHECK-IN MOCKUP</text>
</svg>